# xmcd CD database file
#
# Track frame offsets:
#	150
#	21926
#	55614
#	89265
#	110585
#	135177
#	157371
#	191658
#	225123
#	248778
#	276173
#
# Disc length: 4147 seconds
#
# Revision: 0
# Processed by: cddbd v1.5.2PL0 Copyright (c) Steve Scherf et al.
# Submitted via: CDex 1.51
#
DISCID=8a10310b
DTITLE=Various Artist - Indy Jazz Fest - Grillin' and Groovin'
DYEAR=2009
DGENRE=Jazz
TTITLE0=Cynthia Layne - Kings and Queens
TTITLE1=Garaj Mahal - Hotel
TTITLE2=The Dixon-Rhyne Project - Shadow and Light
TTITLE3=Rob Dixon and Trilogy - Love of My Life
TTITLE4=Bill Moring and Way Out East - Ihop
TTITLE5=Steve Allee - Hip Factor
TTITLE6=Fareed Haque - West
TTITLE7=The Dixon-Rhyne Project - Mel's Groove
TTITLE8=Cynthia Layne - Free Yourself
TTITLE9=Rob Dixon and Trilogy - The Earth, The Sky
TTITLE10=Derrick Gardner and The Jazz Prophets - Funky Straight
EXTD=YEAR: 2009
EXTT0=
EXTT1=
EXTT2=
EXTT3=
EXTT4=
EXTT5=
EXTT6=
EXTT7=
EXTT8=
EXTT9=
EXTT10=
PLAYORDER=
